<?xml version="1.0" encoding="UTF-8" standalone="no"?>
<!-- Created with Inkscape (http://www.inkscape.org/) -->

<svg
   xmlns:dc="http://purl.org/dc/elements/1.1/"
   xmlns:cc="http://creativecommons.org/ns#"
   xmlns:rdf="http://www.w3.org/1999/02/22-rdf-syntax-ns#"
   xmlns:svg="http://www.w3.org/2000/svg"
   xmlns="http://www.w3.org/2000/svg"
   xmlns:sodipodi="http://sodipodi.sourceforge.net/DTD/sodipodi-0.dtd"
   xmlns:inkscape="http://www.inkscape.org/namespaces/inkscape"
   width="210mm"
   height="297mm"
   viewBox="0 0 210 297"
   version="1.1"
   id="svg8"
   inkscape:export-filename="C:\Users\jsp\Downloads\icon_toggle.png"
   inkscape:export-xdpi="2398.4641"
   inkscape:export-ydpi="2398.4641"
   inkscape:version="0.92.2 (5c3e80d, 2017-08-06)"
   sodipodi:docname="icon_toggle.svg">
  <defs
     id="defs2" />
  <sodipodi:namedview
     id="base"
     pagecolor="#ffffff"
     bordercolor="#666666"
     borderopacity="1.0"
     inkscape:pageopacity="0.0"
     inkscape:pageshadow="2"
     inkscape:zoom="2"
     inkscape:cx="286.73594"
     inkscape:cy="880"
     inkscape:document-units="mm"
     inkscape:current-layer="layer1"
     showgrid="false"
     inkscape:window-width="2400"
     inkscape:window-height="1271"
     inkscape:window-x="2391"
     inkscape:window-y="-9"
     inkscape:window-maximized="1" />
  <metadata
     id="metadata5">
    <rdf:RDF>
      <cc:Work
         rdf:about="">
        <dc:format>image/svg+xml</dc:format>
        <dc:type
           rdf:resource="http://purl.org/dc/dcmitype/StillImage" />
        <dc:title></dc:title>
      </cc:Work>
    </rdf:RDF>
  </metadata>
  <g
     inkscape:label="Capa 1"
     inkscape:groupmode="layer"
     id="layer1">
    <g
       id="g4544"
       transform="translate(0.2645835)">
      <path
         style="fill:#b7c8be;stroke-width:1.32291663"
         id="path4504"
         d="m 26.155951,62.182292 c 0.264584,0 16.933333,0 17.197916,0 3.96875,0 7.276041,-3.307292 7.276041,-7.276042 0,-3.968749 -3.307291,-7.276041 -7.276041,-7.276041 -0.264583,0 -0.661458,0 -0.661458,0 H 26.81741 c 0,0 -0.396875,0 -0.661459,0 -3.968749,0 -7.276041,3.307292 -7.276041,7.276041 0,3.96875 3.307292,7.276042 7.276041,7.276042 z m 0,-11.90625 c 0.264584,0 0.661459,0 0.661459,0 0,0 16.271874,0 16.536457,0 2.513542,0 4.630208,2.116667 4.630208,4.630208 0,2.513542 -2.116666,4.630208 -4.630208,4.630208 -0.264583,0 -16.933332,0 -17.197916,0 -2.513541,0 -4.630208,-2.116666 -4.630208,-4.630208 0,-2.513541 2.116667,-4.630208 4.630208,-4.630208 z"
         inkscape:connector-curvature="0" />
      <path
         style="fill:#8dd35f;stroke-width:1.32291663"
         id="path4506"
         d="m 43.353867,58.213542 c 1.719792,0 3.307292,-1.455208 3.307292,-3.307292 0,-1.852083 -1.5875,-3.307291 -3.307292,-3.307291 -1.719791,0 -3.307291,1.455208 -3.307291,3.307291 0,1.852084 1.455208,3.307292 3.307291,3.307292 z m 0,-5.291667 c 1.058333,0 1.984375,0.926042 1.984375,1.984375 0,1.058334 -0.926042,1.984375 -1.984375,1.984375 -1.058333,0 -1.984375,-0.926041 -1.984375,-1.984375 0,-1.058333 0.79375,-1.984375 1.984375,-1.984375 z"
         inkscape:connector-curvature="0" />
    </g>
    <g
       id="g4540"
       transform="translate(-0.2645835)">
      <path
         style="fill:#b7c8be;stroke-width:1.32291663"
         id="path4508"
         d="m 43.883034,29.109375 c -0.264583,0 -16.933332,0 -17.197916,0 -3.968749,0 -7.276041,3.307291 -7.276041,7.276041 0,3.96875 3.307292,7.276041 7.276041,7.276041 0.264584,0 0.661459,0 0.661459,0 h 15.874999 c 0,0 0.396875,0 0.661458,0 3.96875,0 7.276041,-3.307291 7.276041,-7.276041 0,-3.96875 -3.307291,-7.276041 -7.276041,-7.276041 z m 0,11.906249 c -0.264583,0 -0.661458,0 -0.661458,0 0,0 -16.271874,0 -16.536458,0 -2.513541,0 -4.630208,-2.116666 -4.630208,-4.630208 0,-2.513541 2.116667,-4.630208 4.630208,-4.630208 0.264584,0 16.933333,0 17.197916,0 2.513542,0 4.630208,2.116667 4.630208,4.630208 0,2.513542 -2.116666,4.630208 -4.630208,4.630208 z"
         inkscape:connector-curvature="0" />
      <path
         style="fill:#de8787;stroke-width:1.32291663"
         id="path4510"
         d="m 26.685118,33.078125 c -1.852083,0 -3.307291,1.455208 -3.307291,3.307291 0,1.852083 1.455208,3.307292 3.307291,3.307292 1.852084,0 3.307292,-1.455209 3.307292,-3.307292 0,-1.852083 -1.455208,-3.307291 -3.307292,-3.307291 z m 0,5.291666 c -1.058333,0 -1.984375,-0.926042 -1.984375,-1.984375 0,-1.058333 0.926042,-1.984375 1.984375,-1.984375 1.058334,0 1.984375,0.926042 1.984375,1.984375 0,1.058333 -0.926041,1.984375 -1.984375,1.984375 z"
         inkscape:connector-curvature="0" />
    </g>
  </g>
</svg>
